<svg xmlns="http://www.w3.org/2000/svg" display="none">

<symbol id="icon1" viewBox="0 0 56 56">
	<g>
		<path d="M35.5831 48H8.7498C5.76242 48 3.33313 45.5707 3.33313 42.5833V6.41666C3.33313 3.42928 5.76241 0.999992 8.7498 0.999992H35.5831C38.5705 0.999992 40.9998 3.42928 40.9998 6.41666V42.5833C40.9998 45.5707 38.5705 48 35.5831 48Z" class="path-stroke" stroke-width="2"/>
		<path d="M47.25 55.9998H20.4167C16.877 55.9998 14 53.1228 14 49.5832V15.7498C14 12.2102 16.877 9.33318 20.4167 9.33318H47.25C50.7897 9.33318 53.6667 12.2102 53.6667 15.7498V49.5832C53.6667 53.1228 50.7897 55.9998 47.25 55.9998Z" fill="white"/>
		<path d="M42.5831 39.6668H25.0831C24.1171 39.6668 23.3331 38.8828 23.3331 37.9168C23.3331 36.9508 24.1171 36.1668 25.0831 36.1668H42.5831C43.5491 36.1668 44.3331 36.9508 44.3331 37.9168C44.3331 38.8828 43.5491 39.6668 42.5831 39.6668Z" class="path-fill"/>
		<path d="M42.5831 49H25.0831C24.1171 49 23.3331 48.216 23.3331 47.25C23.3331 46.284 24.1171 45.5 25.0831 45.5H42.5831C43.5491 45.5 44.3331 46.284 44.3331 47.25C44.3331 48.216 43.5491 49 42.5831 49Z" class="path-fill"/>
		<path d="M42.5831 31.5H25.0831C24.1171 31.5 23.3331 30.716 23.3331 29.75C23.3331 28.784 24.1171 28 25.0831 28H42.5831C43.5491 28 44.3331 28.784 44.3331 29.75C44.3331 30.716 43.5491 31.5 42.5831 31.5Z" class="path-fill"/>
		<path d="M42.5831 22.1668H25.0831C24.1171 22.1668 23.3331 21.3828 23.3331 20.4168C23.3331 19.4508 24.1171 18.6668 25.0831 18.6668H42.5831C43.5491 18.6668 44.3331 19.4508 44.3331 20.4168C44.3331 21.3828 43.5491 22.1668 42.5831 22.1668Z" class="path-fill"/>
		<path d="M47.25 54.9999H20.4167C17.4293 54.9999 15 52.5706 15 49.5833V15.7499C15 12.7625 17.4293 10.3333 20.4167 10.3333H47.25C50.2374 10.3333 52.6667 12.7625 52.6667 15.7499V49.5833C52.6667 52.5706 50.2374 54.9999 47.25 54.9999Z" class="path-stroke" stroke-width="2"/>
		<path d="M42.584 39.6667H25.084C24.118 39.6667 23.334 38.8827 23.334 37.9167C23.334 36.9507 24.118 36.1667 25.084 36.1667H42.584C43.55 36.1667 44.334 36.9507 44.334 37.9167C44.334 38.8827 43.55 39.6667 42.584 39.6667Z" class="path-fill"/>
		<path d="M42.584 48.9999H25.084C24.118 48.9999 23.334 48.2159 23.334 47.2499C23.334 46.2839 24.118 45.4999 25.084 45.4999H42.584C43.55 45.4999 44.334 46.2839 44.334 47.2499C44.334 48.2159 43.55 48.9999 42.584 48.9999Z" class="path-fill"/>
		<path d="M42.584 31.4999H25.084C24.118 31.4999 23.334 30.7159 23.334 29.7499C23.334 28.7839 24.118 27.9999 25.084 27.9999H42.584C43.55 27.9999 44.334 28.7839 44.334 29.7499C44.334 30.7159 43.55 31.4999 42.584 31.4999Z" class="path-fill"/>
		<path d="M42.584 22.1667H25.084C24.118 22.1667 23.334 21.3827 23.334 20.4167C23.334 19.4507 24.118 18.6667 25.084 18.6667H42.584C43.55 18.6667 44.334 19.4507 44.334 20.4167C44.334 21.3827 43.55 22.1667 42.584 22.1667Z" class="path-fill"/>
	</g>
</symbol>

<symbol id="icon2" viewBox="0 0 56 56">
	<path d="M41.6379 43.75H14.3621C13.8497 43.75 13.3459 43.6182 12.8991 43.3672C12.4524 43.1162 12.0777 42.7546 11.8111 42.317C11.5445 41.8794 11.395 41.3805 11.3769 40.8684C11.3588 40.3563 11.4727 39.8482 11.7077 39.3928L24.6698 14.2788C24.9853 13.6676 25.4629 13.155 26.0503 12.7971C26.6376 12.4393 27.3122 12.25 28 12.25C28.6878 12.25 29.3624 12.4393 29.9497 12.7971C30.5371 13.155 31.0147 13.6676 31.3302 14.2788L44.2923 39.3929C44.5273 39.8483 44.6412 40.3564 44.6231 40.8685C44.605 41.3806 44.4555 41.8794 44.1889 42.317C43.9223 42.7546 43.5476 43.1163 43.1009 43.3672C42.6541 43.6182 42.1503 43.75 41.6379 43.75ZM28 14C27.6332 13.9992 27.2733 14.0997 26.9601 14.2905C26.6468 14.4814 26.3924 14.755 26.2249 15.0814L13.2628 40.1955C13.1655 40.3841 13.1183 40.5946 13.1258 40.8066C13.1333 41.0187 13.1952 41.2253 13.3056 41.4065C13.416 41.5878 13.5712 41.7375 13.7562 41.8415C13.9412 41.9454 14.1499 42 14.3621 42H41.6379C41.8501 42 42.0588 41.9454 42.2438 41.8415C42.4288 41.7376 42.584 41.5878 42.6944 41.4066C42.8048 41.2254 42.8667 41.0188 42.8742 40.8067C42.8817 40.5946 42.8345 40.3842 42.7372 40.1956L29.7751 15.0814C29.6076 14.755 29.3532 14.4814 29.0399 14.2905C28.7267 14.0997 28.3668 13.9992 28 14Z"/>
	<path d="M31.5 11.375H29.75V7.875C29.75 7.66236 29.8274 7.457 29.9678 7.29729C30.1082 7.13758 30.3019 7.03444 30.5128 7.00716L28 3.99176L25.4872 7.00716C25.6981 7.03444 25.8918 7.13758 26.0322 7.29729C26.1726 7.457 26.25 7.66236 26.25 7.875V11.375H24.5V8.75H23.625C23.4587 8.75 23.2958 8.70261 23.1555 8.61338C23.0152 8.52414 22.9032 8.39676 22.8326 8.24616C22.7621 8.09556 22.7359 7.92797 22.7572 7.76304C22.7785 7.5981 22.8463 7.44264 22.9528 7.31488L27.3278 2.06488C27.4099 1.96633 27.5127 1.88704 27.6288 1.83262C27.745 1.77821 27.8717 1.75 28 1.75C28.1283 1.75 28.255 1.77821 28.3712 1.83262C28.4873 1.88704 28.5901 1.96633 28.6722 2.06488L33.0472 7.31488C33.1537 7.44264 33.2215 7.5981 33.2428 7.76304C33.2641 7.92797 33.2379 8.09556 33.1674 8.24616C33.0968 8.39676 32.9848 8.52414 32.8445 8.61338C32.7042 8.70261 32.5413 8.75 32.375 8.75H31.5V11.375Z"/>
	<path d="M7.87515 33.2501C7.6704 33.2502 7.47211 33.1784 7.31483 33.0473L2.06483 28.6723C1.96629 28.5902 1.88701 28.4874 1.83261 28.3713C1.7782 28.2551 1.75 28.1284 1.75 28.0001C1.75 27.8719 1.7782 27.7452 1.83261 27.629C1.88701 27.5129 1.96629 27.4101 2.06483 27.328L7.31483 22.953C7.44258 22.8465 7.59804 22.7786 7.76298 22.7573C7.92792 22.736 8.09552 22.7622 8.24614 22.8327C8.39675 22.9033 8.52414 23.0153 8.61338 23.1556C8.70261 23.296 8.75 23.4588 8.74999 23.6251V24.5001H16.625V26.2501H7.87499C7.66236 26.2501 7.457 26.1727 7.29729 26.0323C7.13757 25.892 7.03441 25.6983 7.0071 25.4874L3.99181 28.0001L7.0071 30.5129C7.03441 30.302 7.13757 30.1083 7.29729 29.9679C7.457 29.8276 7.66236 29.7501 7.87499 29.7501H14V31.5001H8.74999V32.3751C8.75001 32.49 8.72739 32.6038 8.68343 32.71C8.63947 32.8161 8.57503 32.9126 8.4938 32.9938C8.41256 33.0751 8.31611 33.1395 8.20997 33.1835C8.10382 33.2275 7.99005 33.2501 7.87515 33.2501Z"/>
	<path d="M28 54.25C27.8717 54.25 27.745 54.2218 27.6288 54.1674C27.5127 54.113 27.4099 54.0337 27.3278 53.9351L22.9528 48.6851C22.8463 48.5574 22.7785 48.4019 22.7572 48.237C22.7359 48.072 22.7621 47.9044 22.8326 47.7538C22.9032 47.6032 23.0152 47.4759 23.1555 47.3866C23.2958 47.2974 23.4587 47.25 23.625 47.25H24.5V45.5H26.25V48.125C26.25 48.3376 26.1726 48.543 26.0322 48.7027C25.8918 48.8624 25.6981 48.9656 25.4872 48.9928L28 52.0082L30.5128 48.9928C30.3019 48.9656 30.1082 48.8624 29.9678 48.7027C29.8274 48.543 29.75 48.3376 29.75 48.125V45.5H31.5V47.25H32.375C32.5413 47.25 32.7042 47.2974 32.8445 47.3866C32.9848 47.4759 33.0968 47.6032 33.1674 47.7538C33.2379 47.9044 33.2641 48.072 33.2428 48.237C33.2215 48.4019 33.1537 48.5574 33.0472 48.6851L28.6722 53.9351C28.5901 54.0337 28.4873 54.113 28.3712 54.1674C28.255 54.2218 28.1283 54.25 28 54.25Z"/>
	<path d="M48.1248 33.25C48.0099 33.25 47.8962 33.2274 47.79 33.1834C47.6839 33.1394 47.5874 33.075 47.5062 32.9937C47.425 32.9125 47.3605 32.816 47.3166 32.7099C47.2726 32.6037 47.25 32.4899 47.25 32.375V31.5H42V29.75H48.125C48.3376 29.75 48.543 29.8275 48.7027 29.9678C48.8624 30.1082 48.9656 30.3019 48.9929 30.5128L52.0082 28L48.9929 25.4873C48.9656 25.6982 48.8624 25.8919 48.7027 26.0322C48.543 26.1726 48.3376 26.25 48.125 26.25H39.375V24.5H47.25V23.625C47.25 23.4587 47.2974 23.2958 47.3866 23.1555C47.4759 23.0151 47.6032 22.9031 47.7539 22.8326C47.9045 22.7621 48.0721 22.7359 48.237 22.7572C48.402 22.7785 48.5574 22.8464 48.6852 22.9529L53.9352 27.3279C54.0337 27.41 54.113 27.5128 54.1674 27.6289C54.2218 27.7451 54.25 27.8718 54.25 28C54.25 28.1283 54.2218 28.255 54.1674 28.3711C54.113 28.4873 54.0337 28.5901 53.9352 28.6722L48.6852 33.0472C48.5279 33.1783 48.3296 33.2501 48.1248 33.25Z"/>
	<path d="M17.7246 23.3353L10.4666 15.2708L9.36871 16.3688C9.24632 16.4911 9.09041 16.5744 8.92068 16.6082C8.75096 16.6419 8.57503 16.6246 8.41516 16.5584C8.25528 16.4921 8.11863 16.38 8.02248 16.2361C7.92634 16.0922 7.87501 15.9231 7.875 15.75V8.75C7.875 8.51794 7.96719 8.29538 8.13128 8.13128C8.29538 7.96719 8.51794 7.875 8.75 7.875H15.75C15.9231 7.875 16.0922 7.92632 16.2361 8.02247C16.38 8.11862 16.4922 8.25528 16.5584 8.41517C16.6246 8.57506 16.642 8.751 16.6082 8.92074C16.5744 9.09048 16.4911 9.24639 16.3687 9.36876L15.2374 10.5L21.6187 16.8812L20.3813 18.1188L13.3813 11.1188C13.3 11.0375 13.2356 10.941 13.1916 10.8349C13.1476 10.7287 13.125 10.6149 13.125 10.5C13.125 10.3851 13.1476 10.2713 13.1916 10.1651C13.2356 10.059 13.3 9.9625 13.3813 9.88124L13.6376 9.625H9.625V13.6376L9.88129 13.3812C9.96529 13.2973 10.0655 13.2313 10.1758 13.1873C10.2862 13.1433 10.4043 13.1222 10.523 13.1253C10.6417 13.1284 10.7586 13.1557 10.8665 13.2055C10.9743 13.2552 11.0709 13.3264 11.1504 13.4147L19.0254 22.1647L17.7246 23.3353Z"/>
	<path d="M53.3746 54.25H46.3746C46.2015 54.25 46.0323 54.1987 45.8884 54.1025C45.7445 54.0064 45.6324 53.8697 45.5662 53.7098C45.4999 53.55 45.4826 53.374 45.5164 53.2043C45.5501 53.0345 45.6335 52.8786 45.7559 52.7563L46.8871 51.625L41.3809 46.1188L42.6183 44.8813L48.7433 51.0063C48.8245 51.0875 48.889 51.184 48.933 51.2901C48.9769 51.3963 48.9996 51.5101 48.9996 51.625C48.9996 51.7399 48.9769 51.8537 48.933 51.9599C48.889 52.0661 48.8245 52.1625 48.7433 52.2438L48.487 52.5H52.4996V48.4874L52.2433 48.7438C52.1608 48.8271 52.0623 48.8928 51.9536 48.9368C51.845 48.9808 51.7285 49.0023 51.6113 48.9999C51.4942 48.9981 51.3786 48.9729 51.2715 48.9256C51.1643 48.8783 51.0677 48.81 50.9874 48.7248L45.2227 42.5998L46.497 41.4003L51.6436 46.8686L52.7559 45.7563C52.8782 45.6339 53.0342 45.5506 53.2039 45.5168C53.3736 45.4831 53.5495 45.5004 53.7094 45.5667C53.8693 45.6329 54.0059 45.745 54.1021 45.8889C54.1982 46.0328 54.2496 46.202 54.2496 46.375V53.375C54.2496 53.6071 54.1574 53.8296 53.9933 53.9937C53.8292 54.1578 53.6066 54.25 53.3746 54.25Z"/>
	<path d="M9.625 54.25H2.625C2.39294 54.25 2.17038 54.1578 2.00628 53.9937C1.84219 53.8296 1.75 53.6071 1.75 53.375V46.375C1.75001 46.202 1.80134 46.0328 1.89748 45.8889C1.99363 45.745 2.13028 45.6329 2.29016 45.5667C2.45003 45.5004 2.62596 45.4831 2.79568 45.5168C2.96541 45.5506 3.12132 45.6339 3.24371 45.7563L4.35599 46.8686L9.50254 41.4003L10.7769 42.5998L5.01218 48.7248C4.93188 48.81 4.83528 48.8783 4.72811 48.9256C4.62093 48.9729 4.50536 48.9981 4.38824 48.9999C4.27101 49.0025 4.15448 48.9812 4.04581 48.9371C3.93713 48.8931 3.83861 48.8273 3.75629 48.7438L3.5 48.4874V52.5H7.51253L7.25629 52.2438C7.17503 52.1625 7.11057 52.0661 7.06659 51.9599C7.02262 51.8537 6.99998 51.7399 6.99998 51.625C6.99998 51.5101 7.02262 51.3963 7.06659 51.2901C7.11057 51.184 7.17503 51.0875 7.25629 51.0063L13.3813 44.8813L14.6187 46.1188L9.11247 51.625L10.2437 52.7563C10.3661 52.8786 10.4494 53.0345 10.4832 53.2043C10.517 53.374 10.4996 53.55 10.4334 53.7098C10.3672 53.8697 10.255 54.0064 10.1111 54.1025C9.96724 54.1987 9.79806 54.25 9.625 54.25Z"/>
	<path d="M38.2749 23.3353L36.9742 22.1647L44.8492 13.4147C44.9286 13.3264 45.0252 13.2552 45.1331 13.2055C45.241 13.1557 45.3578 13.1284 45.4765 13.1253C45.5953 13.1222 45.7134 13.1433 45.8237 13.1873C45.9341 13.2313 46.0343 13.2973 46.1183 13.3812L46.3746 13.6376V9.625H42.362L42.6183 9.88124C42.6995 9.9625 42.764 10.059 42.808 10.1651C42.8519 10.2713 42.8746 10.3851 42.8746 10.5C42.8746 10.6149 42.8519 10.7287 42.808 10.8349C42.764 10.941 42.6995 11.0375 42.6183 11.1188L35.6183 18.1188L34.3809 16.8812L40.7622 10.5L39.6309 9.36876C39.5085 9.24639 39.4251 9.09048 39.3914 8.92074C39.3576 8.751 39.3749 8.57506 39.4412 8.41517C39.5074 8.25528 39.6195 8.11862 39.7634 8.02247C39.9073 7.92632 40.0765 7.875 40.2496 7.875H47.2496C47.4816 7.875 47.7042 7.96719 47.8683 8.13128C48.0324 8.29538 48.1246 8.51794 48.1246 8.75V15.75C48.1246 15.9231 48.0732 16.0922 47.9771 16.2361C47.8809 16.38 47.7443 16.4921 47.5844 16.5584C47.4245 16.6246 47.2486 16.6419 47.0789 16.6082C46.9092 16.5744 46.7532 16.4911 46.6309 16.3688L45.533 15.2708L38.2749 23.3353Z"/>
	<path d="M33.8203 33.58C33.8203 34.6333 33.375 35.5267 32.4845 36.26C31.6088 36.9933 30.3324 37.42 28.6552 37.54V39.8H27.2303V37.54C26.1468 37.4867 25.1153 37.3067 24.1357 37C23.171 36.68 22.3992 36.28 21.8203 35.8L22.6441 34.24C23.1784 34.68 23.8537 35.0467 24.67 35.34C25.4864 35.62 26.3398 35.7867 27.2303 35.84V31.2C26.1914 30.9733 25.3231 30.7267 24.6255 30.46C23.9428 30.1933 23.3639 29.8 22.889 29.28C22.4288 28.76 22.1988 28.08 22.1988 27.24C22.1988 26.1867 22.6218 25.2933 23.4678 24.56C24.3287 23.8267 25.5828 23.4 27.2303 23.28V21H28.6552V23.26C29.5012 23.2867 30.3175 23.4067 31.1042 23.62C31.9057 23.8333 32.5958 24.12 33.1747 24.48L32.44 26.08C31.2378 25.4 29.9762 25.0267 28.6552 24.96V29.62C29.7387 29.86 30.6292 30.1133 31.3268 30.38C32.0244 30.6333 32.6107 31.02 33.0856 31.54C33.5754 32.0467 33.8203 32.7267 33.8203 33.58ZM24.3806 27.16C24.3806 27.7333 24.6255 28.18 25.1153 28.5C25.6051 28.82 26.3101 29.0867 27.2303 29.3V24.98C26.2804 25.0867 25.568 25.34 25.093 25.74C24.6181 26.1267 24.3806 26.6 24.3806 27.16ZM28.6552 35.82C29.6496 35.74 30.3917 35.5133 30.8815 35.14C31.3862 34.7533 31.6385 34.2733 31.6385 33.7C31.6385 33.1133 31.3788 32.6667 30.8593 32.36C30.3546 32.04 29.6199 31.76 28.6552 31.52V35.82Z"/>
</symbol>

<symbol id="icon3" viewBox="0 0 56 56">
	<g>
		<path d="M15.1484 23.078C15.6317 23.078 16.0234 22.6862 16.0234 22.203V21.2186C16.0234 20.7354 15.6317 20.3436 15.1484 20.3436C14.6652 20.3436 14.2734 20.7354 14.2734 21.2186V22.203C14.2734 22.6862 14.6652 23.078 15.1484 23.078Z"/>
		<path d="M40.8516 39.9764H16.0234V24.8827C16.0234 24.3995 15.6317 24.0077 15.1484 24.0077C14.6652 24.0077 14.2734 24.3995 14.2734 24.8827V40.8514C14.2734 41.3347 14.6652 41.7264 15.1484 41.7264H17.5043V55.1249C17.5043 55.6081 17.896 55.9999 18.3793 55.9999H37.6207C38.104 55.9999 38.4957 55.6081 38.4957 55.1249V43.8593C38.4957 43.376 38.104 42.9843 37.6207 42.9843C37.1375 42.9843 36.7457 43.376 36.7457 43.8593V54.2499H33.7969V48.1249C33.7969 47.6417 33.4051 47.2499 32.9219 47.2499C32.4387 47.2499 32.0469 47.6417 32.0469 48.1249V54.2499H28.875V45.4999C28.875 45.0167 28.4832 44.6249 28 44.6249C27.5168 44.6249 27.125 45.0167 27.125 45.4999V54.2499H19.2543V41.7264H40.8516C41.3348 41.7264 41.7266 41.3347 41.7266 40.8514C41.7266 40.3682 41.3349 39.9764 40.8516 39.9764Z"/>
		<path d="M40.8515 14.2734H19.2543V12.2671H37.6206C38.1038 12.2671 38.4956 11.8753 38.4956 11.3921C38.4956 10.9089 38.1038 10.5171 37.6206 10.5171H33.2033V5.42164C33.2033 5.19698 33.1169 4.98107 32.962 4.81832L28.6336 0.271605C28.289 -0.0905351 27.7107 -0.0905351 27.3661 0.271605L23.0377 4.81832C22.716 5.15618 22.7964 5.23253 22.7964 8.09356C22.7964 8.57678 23.1882 8.96856 23.6714 8.96856C24.1546 8.96856 24.5464 8.57678 24.5464 8.09356V5.77153L27.9998 2.14389L31.4532 5.77153V10.5171H18.3793C17.896 10.5171 17.5043 10.9089 17.5043 11.3921V14.2734H15.1484C14.6652 14.2734 14.2734 14.6651 14.2734 15.1484V18.8671C14.2734 19.3503 14.6652 19.7421 15.1484 19.7421C15.6317 19.7421 16.0234 19.3503 16.0234 18.8671V16.0234H39.9766V37.0782C39.9766 37.5614 40.3683 37.9532 40.8516 37.9532C41.3348 37.9532 41.7266 37.5614 41.7266 37.0782V15.1484C41.7265 14.6651 41.3348 14.2734 40.8515 14.2734Z"/>
		<path d="M36.2882 27.9998C36.2882 23.43 32.5703 19.7122 28.0006 19.7122C23.4308 19.7122 19.7129 23.43 19.7129 27.9998C19.7129 32.5696 23.4308 36.2875 28.0006 36.2875C32.5703 36.2875 36.2882 32.5696 36.2882 27.9998ZM21.4628 27.9998C21.4628 24.3949 24.3956 21.4622 28.0004 21.4622C31.6053 21.4622 34.5381 24.3949 34.5381 27.9998C34.5381 31.6047 31.6053 34.5375 28.0004 34.5375C24.3956 34.5375 21.4628 31.6047 21.4628 27.9998Z"/>
		<path d="M22.2031 48.1249V52.2811C22.2031 52.7643 22.5949 53.1561 23.0781 53.1561C23.5613 53.1561 23.9531 52.7643 23.9531 52.2811V48.1249C23.9531 47.6417 23.5613 47.2499 23.0781 47.2499C22.5949 47.2499 22.2031 47.6417 22.2031 48.1249Z"/>
		<path d="M30.625 28.8749C31.1082 28.8749 31.5 28.4831 31.5 27.9999C31.5 27.5167 31.1082 27.1249 30.625 27.1249H28.875V23.6249C28.875 23.1417 28.4832 22.7499 28 22.7499C27.5168 22.7499 27.125 23.1417 27.125 23.6249V27.9999C27.125 28.4831 27.5168 28.8749 28 28.8749H30.625Z"/>
	</g>
</symbol>

<symbol id="icon4" viewBox="0 0 56 56">
	<g>
		<path d="M19.7649 3.97388C11.0237 3.97388 3.95703 11.041 3.95703 19.7817C3.95703 28.5224 11.0237 35.5895 19.7649 35.5895C28.5056 35.5895 35.5727 28.5224 35.5727 19.7817C35.5727 11.041 28.5056 3.97388 19.7649 3.97388ZM19.7649 33.7298C12.0466 33.7298 5.81678 27.4995 5.81678 19.7817C5.81678 12.0635 12.0466 5.83362 19.7649 5.83362C27.4826 5.83362 33.7129 12.0635 33.7129 19.7817C33.7129 27.4995 27.4826 33.7298 19.7649 33.7298Z"/>
		<path d="M19.8904 14.3973H21.2055C22.2025 14.3973 23.0137 15.2084 23.0137 16.2055C23.0137 16.6595 23.3816 17.0274 23.8356 17.0274C24.2896 17.0274 24.6575 16.6595 24.6575 16.2055C24.6575 14.302 23.1089 12.7534 21.2055 12.7534H21.1507V11.8219C21.1507 11.3679 20.7828 11 20.3288 11C19.8747 11 19.5068 11.3679 19.5068 11.8219V12.7725C17.541 12.9658 16 14.6281 16 16.6438C16 18.789 17.7452 20.5342 19.8904 20.5342H20.7671C22.0059 20.5342 23.0137 21.542 23.0137 22.7808C23.0137 24.0196 22.0059 25.0274 20.7671 25.0274H19.4521C18.455 25.0274 17.6438 24.2162 17.6438 23.2192C17.6438 22.7652 17.2759 22.3973 16.8219 22.3973C16.3679 22.3973 16 22.7652 16 23.2192C16 25.1226 17.5486 26.6712 19.4521 26.6712H19.5068V27.6027C19.5068 28.0568 19.8747 28.4247 20.3288 28.4247C20.7828 28.4247 21.1507 28.0568 21.1507 27.6027V26.6522C23.1165 26.4588 24.6575 24.7966 24.6575 22.7808C24.6575 20.6356 22.9123 18.8904 20.7671 18.8904H19.8904C18.6516 18.8904 17.6438 17.8826 17.6438 16.6438C17.6438 15.405 18.6516 14.3973 19.8904 14.3973Z"/>
		<path d="M51.3799 40.2387V9.55293C51.3799 6.94901 49.334 4.90356 46.7306 4.90356H36.502V6.76331H46.7306C48.3111 6.76331 49.5202 7.97196 49.5202 9.55293V40.2387H51.3799Z"/>
		<path d="M4.88672 37.4492V46.7479C4.88672 49.3514 6.93217 51.3973 9.53608 51.3973H42.0816V49.5375H9.53608C7.95512 49.5375 6.74646 48.3284 6.74646 46.7479V37.4492H4.88672Z"/>
		<path d="M45.1503 39.2159C44.5923 38.6578 43.9416 38.3791 43.1975 38.3791H42.5468L35.8516 30.847C41.9888 21.9201 39.8498 9.73873 30.9234 3.50886C21.9966 -2.72146 9.72209 -0.396784 3.58484 8.437C-2.55195 17.2708 -0.413424 29.5453 8.51343 35.7752C15.5805 40.7037 25.065 40.4245 31.8533 35.0314L38.3624 42.3773V43.1215C38.3624 43.8652 38.6412 44.6089 39.1992 45.0739L48.8698 54.7449C50.5434 56.4185 53.1473 56.4185 54.8209 54.7449C56.4949 53.0709 56.4949 50.4674 54.8209 48.7934L45.1503 39.2159ZM2.09741 19.7816C2.09741 10.018 10.0013 2.11405 19.765 2.11405C29.5286 2.11405 37.4325 10.018 37.4325 19.7816C37.4325 29.5453 29.5286 37.4492 19.765 37.4492C10.0013 37.4492 2.09741 29.5453 2.09741 19.7816ZM33.2481 33.9154C33.713 33.4505 34.2706 32.8929 34.6429 32.428L40.7797 39.3089L39.2923 40.7037L33.2481 33.9154ZM51.8455 54.1869C51.1945 54.1869 50.6364 53.9077 50.1715 53.5358L40.5009 43.8652C40.3148 43.6791 40.2221 43.4934 40.2221 43.2141V42.4704L42.4537 40.2388H43.1975C43.4767 40.2388 43.6624 40.3319 43.8486 40.5176L53.5191 50.1882C54.449 51.118 54.449 52.6059 53.5191 53.5358C53.0542 53.9077 52.4031 54.1869 51.8455 54.1869Z"/>
	</g>
</symbol>

<symbol id="icon5" viewBox="0 0 56 56">
	<g>
		<path d="M27.0964 41.3919V46.9391H28.9028V41.3919C30.4566 40.9879 31.6125 39.5863 31.6125 37.9068C31.6125 35.9147 29.9922 34.2939 27.9996 34.2939C26.0071 34.2939 24.3867 35.9147 24.3867 37.9068C24.3867 39.5863 25.5427 40.9879 27.0964 41.3919ZM27.9996 36.1004C28.9959 36.1004 29.8061 36.911 29.8061 37.9068C29.8061 38.9031 28.9959 39.7133 27.9996 39.7133C27.0033 39.7133 26.1932 38.9031 26.1932 37.9068C26.1932 36.911 27.0033 36.1004 27.9996 36.1004Z"/>
		<path d="M47.871 17.9322V7.19714H36.7522L30.1796 0.852067C29.0025 -0.284022 26.9967 -0.284022 25.8187 0.852067L19.2478 7.19714H8.12903V17.9322L0 25.7812V55.9713H56V25.7812L47.871 17.9322ZM18.1818 39.2259C18.3481 40.557 18.6996 41.8333 19.2235 43.0227L1.80645 53.4734V27.8893L18.1818 39.2259ZM9.93548 16.2294H46.0645V31.3187L37.9355 36.9467V33.8423L37.5743 33.5715C37.5183 33.5301 37.0062 33.1561 36.129 32.6917V27.9713C36.129 23.4887 32.4817 19.8423 28 19.8423C23.5183 19.8423 19.871 23.4887 19.871 27.9713V32.6917C18.9929 33.1561 18.4808 33.5301 18.4257 33.5715L18.0645 33.8423V36.9467L9.93548 31.3187V16.2294ZM19.871 37.5095V34.7773C20.8792 34.1453 23.9112 32.4888 28 32.4888C32.0905 32.4888 35.123 34.1462 36.129 34.7773V37.5095C36.129 42.6571 32.8738 47.1225 28 48.7032C23.1262 47.1217 19.871 42.6571 19.871 37.5095ZM34.3226 31.8709C33.7788 31.6605 33.1746 31.459 32.5161 31.2817V27.9713C32.5161 25.4813 30.49 23.4552 28 23.4552C25.51 23.4552 23.4839 25.4813 23.4839 27.9713V31.2826C22.8254 31.4599 22.2212 31.6614 21.6774 31.8718V27.9713C21.6774 24.4859 24.5137 21.6488 28 21.6488C31.4863 21.6488 34.3226 24.4859 34.3226 27.9713V31.8709ZM30.7097 30.8998C29.8651 30.7661 28.9628 30.681 28 30.681C27.0372 30.681 26.1349 30.7661 25.2903 30.8998V27.9713C25.2903 26.4776 26.5062 25.2617 28 25.2617C29.4938 25.2617 30.7097 26.4776 30.7097 27.9713V30.8998ZM20.0615 44.6272C21.7577 47.3947 24.4378 49.5244 27.7407 50.5141L28 50.5921L28.2593 50.5141C31.5622 49.5235 34.2423 47.3938 35.9385 44.6263L51.8363 54.1649H4.16375L20.0615 44.6272ZM36.7765 43.0227C37.3004 41.8333 37.6519 40.557 37.8182 39.2251L54.1935 27.8893V53.4734L36.7765 43.0227ZM53.6771 26.0493L47.871 30.0689V20.4452L53.6771 26.0493ZM27.0743 2.15178C27.5744 1.67061 28.4265 1.67061 28.9248 2.15178L34.151 7.19714H21.849L27.0743 2.15178ZM46.0645 9.00359V14.4229H9.93548V9.00359H46.0645ZM8.12903 30.0689L2.3229 26.0493L8.12903 20.4452V30.0689Z"/>
		<path d="M11.7422 10.8101H13.5486V12.6165H11.7422V10.8101Z"/>
		<path d="M15.3555 10.8101H17.1619V12.6165H15.3555V10.8101Z"/>
		<path d="M18.9668 10.8101H20.7732V12.6165H18.9668V10.8101Z"/>
		<path d="M11.7422 18.0359H18.0648V19.8423H11.7422V18.0359Z"/>
		<path d="M11.7422 21.6488H18.0648V23.4553H11.7422V21.6488Z"/>
		<path d="M11.7422 25.2616H18.0648V27.068H11.7422V25.2616Z"/>
		<path d="M37.9355 18.0359H44.2581V19.8423H37.9355V18.0359Z"/>
		<path d="M37.9355 21.6488H44.2581V23.4553H37.9355V21.6488Z"/>
		<path d="M37.9355 25.2616H44.2581V27.068H37.9355V25.2616Z"/>
	</g>
</symbol>

<symbol id="icon6" viewBox="0 0 56 56">
	<g>
		<path d="M18.1348 14.6083C18.0215 14.5682 17.9063 14.5268 17.7909 14.4842V12.1586C18.3537 12.2498 18.7722 12.4501 18.7853 12.4563C19.1899 12.657 19.6808 12.4933 19.8834 12.0895C20.0865 11.6845 19.9229 11.1915 19.5179 10.9884C19.4723 10.9656 18.7547 10.6127 17.7909 10.5059V10.2133C17.7909 9.76012 17.4236 9.39294 16.9706 9.39294C16.5176 9.39294 16.1503 9.76012 16.1503 10.2133V10.6202C16.1218 10.6281 16.0933 10.6353 16.0649 10.644C15.1547 10.9182 14.4752 11.6944 14.2914 12.6696C14.1223 13.5668 14.4151 14.4362 15.0556 14.9386C15.3429 15.164 15.6909 15.3707 16.1503 15.5841V18.594C15.8649 18.5403 15.6299 18.4268 15.2753 18.195C14.8961 17.9467 14.3877 18.0531 14.1397 18.4325C13.8918 18.8117 13.9981 19.32 14.3772 19.568C15.0494 20.0077 15.5441 20.1842 16.1502 20.2475V20.644C16.1502 21.0972 16.5174 21.4643 16.9705 21.4643C17.4235 21.4643 17.7908 21.0972 17.7908 20.644V20.1678C19.0273 19.8284 19.8195 18.7616 19.9964 17.7088C20.2283 16.3297 19.4802 15.0837 18.1348 14.6083ZM16.0682 13.6475C15.9139 13.5266 15.8494 13.2619 15.9037 12.9733C15.9354 12.8054 16.0157 12.6184 16.1504 12.4669V13.7086C16.1221 13.6883 16.0944 13.668 16.0682 13.6475ZM18.3787 17.4365C18.3205 17.7824 18.1213 18.1443 17.791 18.3794V16.2438C18.4394 16.577 18.4222 17.1771 18.3787 17.4365Z"/>
		<path d="M40.0423 11.5674C40.4955 11.5674 40.8627 11.2002 40.8627 10.7471C40.8627 10.2939 40.4955 9.92676 40.0423 9.92676H30.4824C30.0293 9.92676 29.6621 10.2939 29.6621 10.7471C29.6621 11.2002 30.0293 11.5674 30.4824 11.5674H40.0423Z"/>
		<path d="M26.3809 14.7504C26.3809 15.2035 26.7481 15.5707 27.2012 15.5707H40.0423C40.4955 15.5707 40.8627 15.2035 40.8627 14.7504C40.8627 14.2972 40.4955 13.9301 40.0423 13.9301H27.2012C26.7481 13.9301 26.3809 14.2972 26.3809 14.7504Z"/>
		<path d="M27.2012 19.5735H40.0423C40.4955 19.5735 40.8627 19.2063 40.8627 18.7532C40.8627 18.3 40.4955 17.9329 40.0423 17.9329H27.2012C26.7481 17.9329 26.3809 18.3 26.3809 18.7532C26.3809 19.2063 26.7481 19.5735 27.2012 19.5735Z"/>
		<path d="M14.6813 35.453C13.8974 35.453 13.2598 36.0907 13.2598 36.8744V44.7124C13.2598 45.4961 13.8974 46.1338 14.6813 46.1338H19.795C20.5788 46.1338 21.2165 45.4961 21.2165 44.7124V36.8744C21.2165 36.0907 20.5788 35.453 19.795 35.453H14.6813ZM19.5759 44.4932H14.9005V37.0936H19.5759V44.4932Z"/>
		<path d="M24.0215 34.6869V44.7124C24.0215 45.4961 24.6591 46.1338 25.4429 46.1338H30.5568C31.3405 46.1338 31.9782 45.4961 31.9782 44.7124V34.6869C31.9782 33.9032 31.3405 33.2655 30.5568 33.2655H25.4429C24.6592 33.2655 24.0215 33.9032 24.0215 34.6869ZM25.6621 34.9061H30.3376V44.4932H25.6621V34.9061Z"/>
		<path d="M54.1711 33.5694C54.222 33.3848 54.2513 33.1912 54.2513 32.9906V31.4266C54.2513 30.4163 53.5619 29.5664 52.6295 29.3161C52.6885 29.1184 52.7213 28.9094 52.7213 28.6927V27.1287C52.7213 26.9121 52.6885 26.7031 52.6295 26.5053C53.5619 26.2551 54.2513 25.4049 54.2513 24.3946V22.8309C54.2513 21.6248 53.27 20.6435 52.0639 20.6435H47.0099V6.55509C47.0099 5.61523 46.2453 4.85059 45.3053 4.85059H22.4959C22.0429 4.85059 21.6756 5.21776 21.6756 5.6709C21.6756 6.12404 22.0429 6.49121 22.4959 6.49121H45.3053C45.3405 6.49121 45.3693 6.51987 45.3693 6.55509V49.4449C45.3693 49.4801 45.3405 49.5087 45.3053 49.5087H10.6947C10.6595 49.5087 10.6308 49.4801 10.6308 49.4449C10.6308 44.7741 10.6308 11.411 10.6308 6.55509C10.6308 6.51987 10.6595 6.49121 10.6947 6.49121H19.2161C19.6691 6.49121 20.0364 6.12404 20.0364 5.6709C20.0364 5.21776 19.6691 4.85059 19.2161 4.85059H10.6947C9.75483 4.85059 8.99019 5.61523 8.99019 6.55509V24.9415H3.93608C2.73 24.9415 1.74869 25.9228 1.74869 27.1289V28.6928C1.74869 28.8934 1.77811 29.0869 1.82886 29.2715C0.793078 29.4432 0 30.3429 0 31.4266V32.9906C0 34.0744 0.793078 34.9741 1.82886 35.146C1.778 35.3307 1.74869 35.5243 1.74869 35.7248V37.2887C1.74869 37.4893 1.77811 37.6828 1.82886 37.8675C0.793078 38.0392 0 38.9388 0 40.0226V41.5866C0 42.1037 0.181344 42.5787 0.482453 42.9537C0.181344 43.3285 0 43.8035 0 44.3206V45.8845C0 47.0907 0.981203 48.072 2.18739 48.072H3.49869C3.95172 48.072 4.319 47.7048 4.319 47.2517C4.319 46.7985 3.95172 46.4314 3.49869 46.4314H2.18739C1.88595 46.4314 1.64062 46.186 1.64062 45.8845V44.3206C1.64062 44.0191 1.88584 43.7739 2.18739 43.7739H8.99019V46.4314H6.77863C6.32559 46.4314 5.95831 46.7985 5.95831 47.2517C5.95831 47.7048 6.32559 48.072 6.77863 48.072H8.99019V49.4449C8.99019 50.3847 9.75483 51.1494 10.6947 51.1494H45.3053C46.2453 51.1494 47.0099 50.3847 47.0099 49.4449V48.072H52.0639C53.27 48.072 54.2513 47.0907 54.2513 45.8845V44.3206C54.2513 43.8035 54.07 43.3285 53.7687 42.9536C54.07 42.5787 54.2513 42.1036 54.2513 41.5865V40.0225C54.2513 39.8219 54.2219 39.6284 54.1711 39.4438C55.2069 39.2719 56 38.3722 56 37.2884V35.7245C56 34.6411 55.2069 33.7412 54.1711 33.5694ZM3.38931 37.2886V35.7247C3.38931 35.4232 3.63464 35.178 3.93608 35.178H8.99008V37.8354H3.93608C3.63453 37.8354 3.38931 37.5901 3.38931 37.2886ZM3.38931 27.1287C3.38931 26.8272 3.63464 26.582 3.93608 26.582H8.99008V29.2394H3.93608C3.63464 29.2394 3.38931 28.9941 3.38931 28.6927V27.1287ZM1.64062 32.9906V31.4266C1.64062 31.1252 1.88584 30.88 2.18739 30.88H3.93608H8.99008V33.5373C7.35142 33.5373 3.80658 33.5373 2.18728 33.5373C1.88584 33.5373 1.64062 33.2921 1.64062 32.9906ZM2.18739 42.1332C1.88595 42.1332 1.64062 41.888 1.64062 41.5866V40.0226C1.64062 39.7212 1.88584 39.476 2.18739 39.476H8.99019V42.1332H2.18739ZM52.6107 40.0226V41.5866C52.6107 41.888 52.3655 42.1332 52.0639 42.1332H47.0099V39.476H52.0639C52.3655 39.476 52.6107 39.7212 52.6107 40.0226ZM51.0806 27.1287V28.6927C51.0806 28.9941 50.8354 29.2394 50.5339 29.2394H47.0099V26.5821H50.5339C50.8354 26.5821 51.0806 26.8274 51.0806 27.1287ZM47.0099 30.88H52.0639C52.3655 30.88 52.6107 31.1252 52.6107 31.4266V32.9906C52.6107 33.2921 52.3655 33.5373 52.0639 33.5373H47.0099V30.88ZM52.0639 22.284C52.3655 22.284 52.6107 22.5292 52.6107 22.8307V24.3946C52.6107 24.6961 52.3655 24.9415 52.0639 24.9415C51.2157 24.9415 48.3101 24.9415 47.0099 24.9415V22.284H52.0639ZM52.6107 45.8845C52.6107 46.186 52.3655 46.4314 52.0639 46.4314H47.0099V43.7739H52.0639C52.3655 43.7739 52.6107 44.0191 52.6107 44.3206V45.8845ZM54.3594 37.2886C54.3594 37.5901 54.1142 37.8354 53.8126 37.8354C52.1999 37.8354 48.6516 37.8354 47.0099 37.8354V35.178H53.8126C54.1142 35.178 54.3594 35.4232 54.3594 35.7247V37.2886Z"/>
		<path d="M41.9196 38.88C42.3727 38.88 42.7399 38.5129 42.7399 38.0597V30.3119C42.7399 29.5282 42.1022 28.8905 41.3185 28.8905H36.2046C35.4209 28.8905 34.7832 29.5282 34.7832 30.3119V44.7124C34.7832 45.4961 35.4209 46.1338 36.2046 46.1338H41.3185C42.1022 46.1338 42.7399 45.4961 42.7399 44.7124V41.3396C42.7399 40.8864 42.3727 40.5193 41.9196 40.5193C41.4665 40.5193 41.0993 40.8864 41.0993 41.3396V44.4932H36.4238V30.5311H41.0993V38.0597C41.0993 38.5128 41.4666 38.88 41.9196 38.88Z"/>
	</g>
</symbol>

<symbol id="icon7" viewBox="0 0 56 56">
	<g>
		<path d="M50.4883 49.4564C54.0466 46.2261 56 42.0489 56 37.6444C56 32.3837 53.1988 27.4541 48.3146 24.1194C47.9398 23.8636 47.4284 23.96 47.1724 24.3349C46.9165 24.7098 47.0129 25.2211 47.3878 25.4771C51.8162 28.5007 54.3562 32.9354 54.3562 37.6444C54.3562 41.7107 52.4725 45.5776 49.0524 48.5324C48.8283 48.7261 48.7257 49.0253 48.7838 49.3156L49.6771 53.7826L44.794 51.6123C44.5826 51.5185 44.3415 51.5179 44.1299 51.6108C41.3435 52.8336 38.1912 53.4801 35.0136 53.4801C24.3482 53.4801 15.6711 46.3763 15.6711 37.6444C15.6711 28.9126 24.3482 21.8088 35.0136 21.8088C38.2185 21.8088 41.3935 22.4647 44.1954 23.7057C44.6103 23.8896 45.0959 23.7021 45.2798 23.2871C45.4637 22.8721 45.2762 22.3866 44.8611 22.2027C43.7977 21.7317 42.6841 21.3409 41.5381 21.0301C41.8255 19.8675 41.9725 18.6764 41.9725 17.4801C41.9725 12.781 39.7691 8.37288 35.768 5.06768C31.8126 1.80017 26.563 0.000610352 20.9863 0.000610352C15.4096 0.000610352 10.16 1.80017 6.20449 5.06768C2.2034 8.37299 0 12.781 0 17.4801C0 21.8843 1.95353 26.0617 5.51178 29.292L4.39956 34.8531C4.27145 35.4933 4.94071 36.0313 5.53929 35.7653L11.5455 33.096C12.4838 33.4898 13.4601 33.8248 14.4573 34.0965C14.1737 35.2509 14.0274 36.438 14.0274 37.6444C14.0274 42.3435 16.2308 46.7516 20.2319 50.0568C24.1874 53.3243 29.437 55.1239 35.0137 55.1239C38.2901 55.1239 41.5456 54.4804 44.4544 53.2602L50.4607 55.9297C51.0593 56.1955 51.7285 55.6577 51.6004 55.0175L50.4883 49.4564ZM21.9178 21.9184H20.0548V18.302H21.9178V21.9184ZM22.7397 16.6581H19.2329C18.779 16.6581 18.411 17.026 18.411 17.4801V21.9184H15.6712V14.3961L20.9863 10.5996L26.3014 14.3961V21.7323C26.133 21.7962 25.9657 21.8621 25.7993 21.9298C25.7566 21.9229 25.7131 21.9184 25.6685 21.9184H25.4032H23.5616V17.4801C23.5616 17.0261 23.1936 16.6581 22.7397 16.6581ZM11.8701 31.4464C11.6584 31.3535 11.4173 31.3539 11.2059 31.448L6.32274 33.6183L7.21622 29.1512C7.2743 28.8609 7.17162 28.5616 6.94762 28.3681C3.52745 25.4131 1.64384 21.5464 1.64384 17.4801C1.64384 8.74823 10.3209 1.64445 20.9863 1.64445C31.6517 1.64445 40.3288 8.74823 40.3288 17.4801C40.3288 18.5494 40.1968 19.6142 39.9384 20.6534C38.331 20.3317 36.6757 20.165 35.0137 20.165C32.5673 20.165 30.184 20.5115 27.9452 21.1761V13.9732C27.9452 13.7078 27.817 13.4587 27.601 13.3044L21.464 8.92083C21.1783 8.71667 20.7943 8.71667 20.5085 8.92083L14.3715 13.3044C14.1555 13.4586 14.0273 13.7078 14.0273 13.9732V21.9184H10.4658C10.0118 21.9184 9.64384 22.2863 9.64384 22.7403C9.64384 23.1944 10.0118 23.5623 10.4658 23.5623H22.5693C21.7496 24.0667 20.9682 24.6238 20.2319 25.2321C17.7314 27.2978 15.9329 29.7941 14.9357 32.5232C13.8805 32.2383 12.8511 31.8771 11.8701 31.4464Z"/>
		<path d="M35.0141 25.4253C28.2765 25.4253 22.7949 30.9068 22.7949 37.6445C22.7949 44.3821 28.2765 49.8637 35.0141 49.8637C41.7517 49.8637 47.2333 44.3822 47.2333 37.6445C47.2333 30.9067 41.7517 25.4253 35.0141 25.4253ZM35.0141 48.2198C29.1829 48.2198 24.4388 43.4757 24.4388 37.6445C24.4388 31.8132 29.1829 27.0691 35.0141 27.0691C40.8453 27.0691 45.5894 31.8132 45.5894 37.6445C45.5894 43.4757 40.8453 48.2198 35.0141 48.2198Z"/>
		<path d="M34.574 32.3294H35.8891C36.8861 32.3294 37.6973 33.1406 37.6973 34.1376C37.6973 34.5916 38.0652 34.9595 38.5192 34.9595C38.9732 34.9595 39.3411 34.5916 39.3411 34.1376C39.3411 32.2342 37.7925 30.6856 35.8891 30.6856H35.8343V29.754C35.8343 29.3 35.4664 28.9321 35.0124 28.9321C34.5583 28.9321 34.1904 29.3 34.1904 29.754V30.7046C32.2246 30.8979 30.6836 32.5602 30.6836 34.576C30.6836 36.7212 32.4288 38.4664 34.574 38.4664H35.4507C36.6895 38.4664 37.6973 39.4742 37.6973 40.7129C37.6973 41.9517 36.6895 42.9595 35.4507 42.9595H34.1356C33.1386 42.9595 32.3274 42.1483 32.3274 41.1513C32.3274 40.6973 31.9595 40.3294 31.5055 40.3294C31.0515 40.3294 30.6836 40.6973 30.6836 41.1513C30.6836 43.0548 32.2322 44.6034 34.1356 44.6034H34.1904V45.5349C34.1904 45.9889 34.5583 46.3568 35.0124 46.3568C35.4664 46.3568 35.8343 45.9889 35.8343 45.5349V44.5843C37.8001 44.391 39.3411 42.7287 39.3411 40.7129C39.3411 38.5677 37.5959 36.8225 35.4507 36.8225H34.574C33.3352 36.8225 32.3274 35.8148 32.3274 34.576C32.3274 33.3372 33.3352 32.3294 34.574 32.3294Z"/>
	</g>
</symbol>

<symbol id="icon8" viewBox="0 0 56 56">
<path class="path-fill" fill-rule="evenodd" clip-rule="evenodd" d="M19.9893 39.1864H28.7306C29.9246 39.1879 31.1152 39.061 32.2821 38.808L33.9208 38.4462C34.0303 38.7581 34.2091 39.0446 34.4473 39.2827C34.8645 39.6996 35.43 39.9339 36.0198 39.9341H39.3041C39.8932 39.9328 40.4578 39.6981 40.8741 39.2814C41.2905 38.8646 41.5246 38.2998 41.5252 37.7107V25.539C41.5246 24.9497 41.2903 24.3846 40.8736 23.9678C40.4569 23.551 39.892 23.3165 39.3026 23.3157H36.0183C35.4288 23.3163 34.8636 23.5507 34.4468 23.9675C34.2866 24.1277 34.1534 24.3098 34.05 24.5068H33.2235C32.7164 23.9074 31.4027 22.6293 28.2115 20.6345C25.8799 19.1762 25.4493 17.5635 25.5015 16.467C25.5288 15.8769 25.3336 15.2981 24.9546 14.845C24.5756 14.392 24.0403 14.0976 23.4547 14.0203C22.8691 13.943 22.2758 14.0882 21.7921 14.4274C21.3085 14.7665 20.9698 15.2748 20.8429 15.8518C20.435 17.7452 20.1792 20.888 22.1415 23.1582H17.4973C16.835 23.1582 16.1998 23.4214 15.7314 23.8897C15.2631 24.358 15 24.9932 15 25.6555C15 26.6136 15.7893 35.2974 16.2108 36.5975C16.481 37.3763 16.9938 38.048 17.6739 38.5139C18.3539 38.9799 19.1654 39.2156 19.9893 39.1864ZM33.7949 26.0203H32.8451C32.7105 26.0203 32.5783 25.9844 32.4621 25.9163C32.346 25.8482 32.2501 25.7504 32.1844 25.6328C32.1844 25.6328 31.3747 24.3986 27.4063 21.9179C24.296 19.9746 23.9252 17.6241 23.9865 16.3936C23.9959 16.2038 23.9407 16.0165 23.8299 15.8621C23.7192 15.7078 23.5593 15.5956 23.3765 15.5438C23.2646 15.5115 23.1473 15.5027 23.0318 15.5178C22.9163 15.5329 22.8052 15.5716 22.7053 15.6315C22.6074 15.6895 22.5226 15.767 22.4561 15.8594C22.3897 15.9517 22.3431 16.0568 22.3194 16.1681C21.8123 18.5216 21.8032 21.6614 24.6396 23.2528C24.7855 23.3348 24.9001 23.4627 24.9656 23.6167C25.0311 23.7707 25.0436 23.9421 25.0013 24.104C24.959 24.2659 24.8643 24.4092 24.7319 24.5115C24.5994 24.6139 24.4369 24.6694 24.2695 24.6695H17.4928C17.2318 24.6695 16.9816 24.7731 16.7971 24.9576C16.6126 25.1421 16.509 25.3924 16.509 25.6533C16.509 26.6038 17.3126 35.0893 17.6532 36.1419C17.8261 36.6139 18.1467 37.0176 18.5673 37.293C18.9878 37.5684 19.486 37.7008 19.9878 37.6706H28.7306C29.8154 37.6704 30.8969 37.5534 31.9566 37.3217L33.7949 36.922V26.0203ZM35.3099 37.5715C35.3114 37.5447 35.3114 37.5179 35.3099 37.4912V25.539C35.3102 25.3508 35.385 25.1704 35.5181 25.0373C35.6512 24.9042 35.8316 24.8294 36.0198 24.8292H39.3041C39.4922 24.8294 39.6726 24.9043 39.8056 25.0374C39.9385 25.1705 40.0132 25.3509 40.0132 25.539V37.7107C40.0132 37.8988 39.9385 38.0793 39.8056 38.2124C39.6726 38.3455 39.4922 38.4203 39.3041 38.4205H36.0198C35.8316 38.4203 35.6512 38.3455 35.5181 38.2124C35.385 38.0793 35.3102 37.8989 35.3099 37.7107V37.5715Z"/>
<path class="path-stroke" d="M5.75 15C5.75 12.1005 8.10051 9.75 11 9.75H45C47.8995 9.75 50.25 12.1005 50.25 15V39.3156C50.25 42.105 48.0687 44.4074 45.2834 44.5579L34.5541 45.1379C33.0284 45.2203 31.5759 45.818 30.434 46.833L28.8305 48.2584C28.3568 48.6793 27.6432 48.6793 27.1695 48.2584L25.566 46.833C24.4241 45.818 22.9716 45.2203 21.4459 45.1379L10.7166 44.5579C7.93131 44.4074 5.75 42.105 5.75 39.3156V15Z" stroke-width="1.5"/>
</symbol>

<symbol id="icon9" viewBox="0 0 56 56">
	<path d="M28.875 22.036V20.125H27.125V21.875H25.375V24.5C25.375 25.9472 26.5527 27.125 28 27.125C28.483 27.125 28.875 27.5179 28.875 28V28.875H28C27.517 28.875 27.125 28.4821 27.125 28V27.125H25.375V28C25.375 29.1392 26.1091 30.1018 27.125 30.464V32.375H28.875V30.625H30.625V28C30.625 26.5528 29.4472 25.375 28 25.375C27.517 25.375 27.125 24.9821 27.125 24.5V23.625H28C28.483 23.625 28.875 24.0179 28.875 24.5V25.375H30.625V24.5C30.625 23.3607 29.8909 22.3983 28.875 22.036Z"/>
	<path d="M28 16.625C22.6931 16.625 18.375 20.9431 18.375 26.25C18.375 31.5569 22.6931 35.875 28 35.875C33.3069 35.875 37.625 31.5569 37.625 26.25C37.625 20.9431 33.3069 16.625 28 16.625ZM28 34.125C23.6574 34.125 20.125 30.5926 20.125 26.25C20.125 21.9082 23.6574 18.375 28 18.375C32.3426 18.375 35.875 21.9082 35.875 26.25C35.875 30.5926 32.3426 34.125 28 34.125Z"/>
	<path d="M11.3916 38.5465L9.64337 38.4546C9.63112 38.6786 9.625 38.9043 9.625 39.131C9.625 42.4105 10.8911 45.5115 13.1898 47.8626L14.441 46.6393C12.4635 44.6163 11.375 41.9502 11.375 39.131C11.375 38.935 11.3811 38.7398 11.3916 38.5465Z"/>
	<path d="M14.0178 32.075L12.6983 30.9253C11.2948 32.5353 10.3227 34.4874 9.88867 36.5717L11.601 36.9287C11.9755 35.1375 12.8103 33.4593 14.0178 32.075Z"/>
	<path d="M53.8589 15.4508L45.7065 11.375H37.6136L39.5255 8.8445L39.2831 8.35888C38.1124 6.01738 35.8111 4.53775 33.2211 4.40213C33.2334 4.10113 33.25 3.801 33.25 3.5V2.95925L32.7661 2.71775C32.6156 2.6425 29.0194 0.875 23.625 0.875H22.75V1.75C22.75 2.065 22.7623 2.37825 22.771 2.69237C20.104 3.0135 17.8132 4.73463 16.7956 7.27913L16.5165 7.97737L18.7819 11.375H5.25C2.83763 11.375 0.875 13.3376 0.875 15.75V19.25C0.875 21.6624 2.83763 23.625 5.25 23.625H14.6361L10.3294 28.3237C7.61775 31.2804 6.125 35.119 6.125 39.1318C6.125 47.9509 13.2991 55.125 22.1182 55.125H33.8809C42.7009 55.125 49.875 47.95 49.875 39.1309C49.875 35.119 48.3822 31.2804 45.6706 28.3237L41.3639 23.625H45.7065L53.858 19.5492C54.6394 19.159 55.125 18.3733 55.125 17.5C55.125 16.6267 54.6394 15.841 53.8589 15.4508ZM26.9876 39.3234L27.0191 39.438L25.2814 45.9533L24.0581 42.2826L21.0166 44.7151L23.114 38.4212C24.3276 38.9104 25.6287 39.2193 26.9876 39.3234ZM32.8414 38.4388L34.9825 44.8639L31.941 42.4314L30.7002 46.1527L28.8068 39.3347C30.2243 39.2472 31.5805 38.941 32.8414 38.4388ZM28 37.625C21.728 37.625 16.625 32.522 16.625 26.25C16.625 19.978 21.728 14.875 28 14.875C34.272 14.875 39.375 19.978 39.375 26.25C39.375 32.522 34.272 37.625 28 37.625ZM11.375 21.875H9.625V13.125H11.375V21.875ZM13.125 18.375H17.5245C16.7291 19.4303 16.0904 20.6071 15.6406 21.875H13.125V18.375ZM38.4755 18.375H44.625V21.875H40.3594C39.9087 20.6071 39.2709 19.4303 38.4755 18.375ZM46.375 13.6658L49.875 15.4158V19.5842L46.375 21.3342V13.6658ZM44.625 13.125V16.625H36.8935C36.2591 16.0387 35.5688 15.5155 34.8285 15.0623L36.2915 13.125H44.625ZM37.4579 8.67825L33.2614 14.2336C32.4485 13.8766 31.5954 13.5957 30.7073 13.4085C31.9428 11.1501 32.7504 8.68263 33.0794 6.13988C34.8828 6.21863 36.5067 7.15925 37.4579 8.67825ZM31.4913 4.06875C31.3985 7.15575 30.5454 10.1885 29.0106 12.8739L28.8426 13.1679C28.5626 13.1495 28.2844 13.125 28 13.125C27.5135 13.125 27.0349 13.1565 26.5615 13.2081C25.298 9.80788 24.6094 6.25887 24.5114 2.6425C27.9274 2.77725 30.4684 3.65575 31.4913 4.06875ZM22.8602 4.4345C23.1 7.539 23.7563 10.5866 24.8211 13.531C24.1168 13.7069 23.4325 13.93 22.778 14.2153L18.4852 7.77525C19.2745 5.95437 20.93 4.70925 22.8602 4.4345ZM21.2205 15.0334C20.4619 15.4936 19.7549 16.0265 19.1074 16.625H13.125V13.125H19.9482L21.2205 15.0334ZM2.625 19.25V15.75C2.625 14.3027 3.80275 13.125 5.25 13.125H7.875V21.875H5.25C3.80275 21.875 2.625 20.6973 2.625 19.25ZM48.125 39.1318C48.125 46.9849 41.7349 53.375 33.8818 53.375H22.1182C14.2651 53.375 7.875 46.9849 7.875 39.1309C7.875 35.5583 9.205 32.1405 11.6191 29.5068L14.8907 25.9376C14.8881 26.0426 14.875 26.1441 14.875 26.25C14.875 31.1334 17.5604 35.3929 21.5267 37.6539L17.4825 49.784L23.191 45.2165L25.4678 52.0459L27.9431 42.763L30.5489 52.1421L32.8081 45.3644L38.5166 49.9319L34.4321 37.6784C38.4213 35.4244 41.125 31.15 41.125 26.25C41.125 26.1441 41.1119 26.0426 41.1092 25.9376L44.3809 29.5068C46.795 32.1396 48.125 35.5583 48.125 39.1318ZM53.0758 17.9839L51.625 18.7092V16.2908L53.0758 17.0161C53.2604 17.1089 53.375 17.2935 53.375 17.5C53.375 17.7065 53.2604 17.8911 53.0758 17.9839Z"/>
</symbol>

<symbol id="mail" viewBox="0 0 24 25">
  <path d="M20 5.2334H4C3.44772 5.2334 3 5.68111 3 6.2334V18.2334C3 18.7857 3.44772 19.2334 4 19.2334H20C20.5523 19.2334 21 18.7857 21 18.2334V6.2334C21 5.68111 20.5523 5.2334 20 5.2334Z" stroke-width="2" stroke-linecap="round" stroke-linejoin="round"/>
  <path d="M3 8.2334L12 13.2334L21 8.2334" stroke-width="2" stroke-linecap="round" stroke-linejoin="round"/>
</symbol>

<symbol id="telegram" viewBox="0 0 24 24">
  <path d="M12 0C5.37058 0 0 5.37135 0 12C0 18.6286 5.37135 24 12 24C18.6294 24 24 18.6286 24 12C24 5.37135 18.6286 0 12 0ZM17.8939 8.22116L15.9244 17.5022C15.7788 18.1603 15.3871 18.3197 14.8405 18.0101L11.8405 15.799L10.3935 17.1925C10.2341 17.352 10.0986 17.4875 9.7889 17.4875L10.0018 14.4341L15.5613 9.4111C15.8036 9.19819 15.5079 9.07742 15.1881 9.29032L8.31716 13.6157L5.35587 12.6914C4.71252 12.4885 4.69781 12.048 5.49135 11.7383L17.0609 7.27665C17.5982 7.0831 18.0674 7.40748 17.8932 8.22039L17.8939 8.22116Z"/>
</symbol>

<symbol id="vk" viewBox="0 0 24 24">
  <path fill-rule="evenodd" clip-rule="evenodd" d="M12 24C18.6274 24 24 18.6274 24 12C24 5.37258 18.6274 0 12 0C5.37258 0 0 5.37258 0 12C0 18.6274 5.37258 24 12 24ZM19.5209 17.0518C19.2022 16.4036 17.908 15.0072 17.908 15.0072C16.7144 13.7857 16.7144 13.704 17.8379 12.0943L18.3912 11.2961C19.6306 9.46142 19.7099 8.85652 19.6428 8.65822C19.6047 8.53324 19.4019 8.48492 19.1062 8.48492H16.3912C16.3255 8.48406 16.2606 8.50064 16.2021 8.53324C16.1269 8.58226 16.0627 8.70477 16.0368 8.7542C16.0354 8.75687 16.0341 8.75932 16.0329 8.76154C15.7779 9.49221 15.4747 10.2017 15.1259 10.8845C13.9947 13.0058 13.577 13.0058 13.4383 13.0058C13.3768 13.0056 13.3166 12.9865 13.2645 12.9508C12.8661 12.6633 12.8833 11.9644 12.8986 11.3473L12.8987 11.3428C12.8987 11.2843 12.8999 11.2277 12.9011 11.1728C12.9022 11.1213 12.9032 11.0713 12.9032 11.0228C12.9032 10.5629 12.917 10.173 12.9307 9.82803C12.9749 8.61323 12.9642 8.25829 12.4612 8.12665C12.2127 8.05832 12.0358 8.01 11.3498 8H10.9977C10.365 8 9.72782 8.02833 9.37415 8.22163C9.25382 8.28753 9.14977 8.38412 9.07079 8.50325C9.26592 8.54324 9.58757 8.65156 9.77661 8.93651C10.0403 9.32978 10.0419 10.1496 10.0419 10.228C10.0647 10.6446 10.1608 12.6526 9.6455 12.9658C9.58036 13.0043 9.50764 13.0249 9.43361 13.0258C9.03878 13.0258 8.54638 12.3993 7.743 10.8562C7.30246 10.0146 7.01499 9.25596 6.89881 8.94937C6.88434 8.91116 6.87252 8.87998 6.86339 8.85652C6.79327 8.67489 6.69266 8.46992 6.38472 8.46992H4.07519C3.81756 8.46992 3.58127 8.63156 3.6956 8.93318C3.71084 8.9765 5.52493 13.6391 7.54025 15.9637C9.18665 17.8617 11.0449 17.9983 11.4017 17.9983H12.449C12.6426 17.9983 12.917 17.78 12.917 17.4001C12.917 16.1836 13.292 15.727 13.5847 15.6237C13.6314 15.6071 13.6803 15.5986 13.7295 15.5987C14.1167 15.5987 14.5009 16.0853 14.9445 16.6486L14.9461 16.6507C15.2429 17.0283 15.5472 17.4155 15.8561 17.6517C16.2585 17.955 16.5909 18 16.7494 18H19.0361C19.1611 17.99 19.527 17.8767 19.6337 17.6467C19.6977 17.5084 19.6672 17.3234 19.5376 17.0852C19.537 17.0837 19.5362 17.082 19.5354 17.08C19.5324 17.0728 19.528 17.0623 19.5209 17.0518Z"/>
</symbol>

<symbol id="fb" viewBox="0 0 24 24">
  <path d="M24 12.0733C24 5.40541 18.6274 0 12 0C5.37258 0 0 5.40541 0 12.0733C0 18.0995 4.38822 23.0943 10.125 24V15.5633H7.07813V12.0733H10.125V9.41342C10.125 6.38755 11.9165 4.71614 14.6576 4.71614C15.9705 4.71614 17.3438 4.95195 17.3438 4.95195V7.92312H15.8306C14.3399 7.92312 13.875 8.85379 13.875 9.80857V12.0733H17.2031L16.6711 15.5633H13.875V24C19.6118 23.0943 24 18.0995 24 12.0733Z"/>
</symbol>

<symbol id="instagram" viewBox="0 0 24 24">
  <g>
    <path fill-rule="evenodd" clip-rule="evenodd" d="M12.0201 -0.0400391C8.75561 -0.0400391 8.34628 -0.0262028 7.06421 0.0322934C5.78481 0.0906409 4.91104 0.293856 4.14645 0.590977C3.35602 0.89816 2.6857 1.30916 2.01745 1.97739C1.34921 2.64566 0.938213 3.316 0.631029 4.10642C0.333909 4.87098 0.130707 5.74478 0.072319 7.02417C0.0138362 8.30624 0 8.71558 0 11.98C0 15.2445 0.0138362 15.6538 0.072319 16.9359C0.130707 18.2153 0.333909 19.0891 0.631029 19.8536C0.938213 20.644 1.34921 21.3144 2.01745 21.9827C2.6857 22.6509 3.35602 23.0619 4.14645 23.3691C4.91104 23.6662 5.78481 23.8694 7.06421 23.9278C8.34628 23.9862 8.75561 24.0001 12.0201 24.0001C15.2845 24.0001 15.6939 23.9862 16.9759 23.9278C18.2553 23.8694 19.1291 23.6662 19.8937 23.3691C20.6841 23.0619 21.3544 22.6509 22.0227 21.9827C22.6909 21.3144 23.1019 20.644 23.4091 19.8536C23.7062 19.0891 23.9094 18.2153 23.9678 16.9359C24.0263 15.6538 24.0401 15.2445 24.0401 11.98C24.0401 8.71558 24.0263 8.30624 23.9678 7.02417C23.9094 5.74478 23.7062 4.87098 23.4091 4.10642C23.1019 3.316 22.6909 2.64566 22.0227 1.97739C21.3544 1.30916 20.6841 0.89816 19.8937 0.590977C19.1291 0.293856 18.2553 0.0906409 16.9759 0.0322934C15.6939 -0.0262028 15.2845 -0.0400391 12.0201 -0.0400391ZM12.0201 2.12573C15.2295 2.12573 15.6097 2.138 16.8772 2.19583C18.0491 2.24927 18.6856 2.44509 19.1092 2.6097C19.6702 2.82774 20.0706 3.08822 20.4912 3.50881C20.9119 3.92946 21.1723 4.32987 21.3904 4.89093C21.555 5.31449 21.7508 5.95094 21.8043 7.12288C21.8621 8.39035 21.8744 8.77054 21.8744 11.98C21.8744 15.1895 21.8621 15.5697 21.8043 16.8372C21.7508 18.0091 21.555 18.6456 21.3904 19.0691C21.1723 19.6302 20.9119 20.0306 20.4912 20.4512C20.0706 20.8718 19.6702 21.1323 19.1092 21.3503C18.6856 21.515 18.0491 21.7108 16.8772 21.7642C15.6099 21.8221 15.2298 21.8343 12.0201 21.8343C8.81034 21.8343 8.43025 21.8221 7.16293 21.7642C5.99098 21.7108 5.35453 21.515 4.93097 21.3503C4.36991 21.1323 3.9695 20.8718 3.54889 20.4512C3.12829 20.0306 2.86778 19.6302 2.64974 19.0691C2.48512 18.6456 2.28933 18.0091 2.23586 16.8372C2.17802 15.5697 2.16577 15.1895 2.16577 11.98C2.16577 8.77054 2.17802 8.39035 2.23586 7.12288C2.28933 5.95094 2.48512 5.31449 2.64974 4.89093C2.86778 4.32987 3.12827 3.92946 3.54888 3.50885C3.9695 3.08822 4.36991 2.82774 4.93097 2.6097C5.35453 2.44509 5.99098 2.24927 7.16293 2.19583C8.43039 2.138 8.81058 2.12573 12.0201 2.12573ZM12.0201 15.9868C9.80728 15.9868 8.01344 14.1929 8.01344 11.9801C8.01344 9.76724 9.80728 7.9734 12.0201 7.9734C14.233 7.9734 16.0268 9.76724 16.0268 11.9801C16.0268 14.1929 14.233 15.9868 12.0201 15.9868ZM12.0201 5.80762C8.61114 5.80762 5.84766 8.5711 5.84766 11.9801C5.84766 15.3891 8.61114 18.1525 12.0201 18.1525C15.4291 18.1525 18.1926 15.3891 18.1926 11.9801C18.1926 8.5711 15.4291 5.80762 12.0201 5.80762ZM18.4365 7.00639C19.2331 7.00639 19.8789 6.36064 19.8789 5.56401C19.8789 4.76738 19.2331 4.12158 18.4365 4.12158C17.6399 4.12158 16.9941 4.76738 16.9941 5.56401C16.9941 6.36064 17.6399 7.00639 18.4365 7.00639Z"/>
  </g>
</symbol>

<symbol id="youtube" viewBox="0 0 35 24">
  <path d="M13.7141 17.1428V6.85707L22.6215 12L13.7141 17.1428ZM33.569 3.74757C33.1747 2.27254 32.0131 1.11071 30.538 0.716475C27.8641 6.10347e-08 17.1427 0 17.1427 0C17.1427 0 6.4214 6.10347e-08 3.74758 0.716475C2.27254 1.11071 1.11071 2.27254 0.716475 3.74757C0 6.4214 0 11.9999 0 11.9999C0 11.9999 0 17.5786 0.716475 20.2523C1.11071 21.7272 2.27254 22.8892 3.74758 23.2833C6.4214 24 17.1427 24 17.1427 24C17.1427 24 27.8641 24 30.538 23.2833C32.0131 22.8892 33.1747 21.7272 33.569 20.2523C34.2855 17.5786 34.2855 11.9999 34.2855 11.9999C34.2855 11.9999 34.2855 6.4214 33.569 3.74757Z"/>
</symbol>

<symbol id="twitter" viewBox="0 0 25 24">
  <path d="M12.2852 0C5.65837 0 0.285156 5.37321 0.285156 12C0.285156 18.6268 5.65837 24 12.2852 24C18.9119 24 24.2852 18.6268 24.2852 12C24.2852 5.37321 18.9119 0 12.2852 0ZM18.0521 9.04554C18.0602 9.17143 18.0602 9.30268 18.0602 9.43125C18.0602 13.3634 15.0655 17.8929 9.59319 17.8929C7.90569 17.8929 6.34141 17.4027 5.02355 16.5589C5.26462 16.5857 5.49498 16.5964 5.74141 16.5964C7.13426 16.5964 8.41462 16.125 9.43516 15.3268C8.12801 15.3 7.0298 14.4429 6.6548 13.2643C7.11283 13.3313 7.52533 13.3313 7.99676 13.2107C7.32371 13.074 6.71875 12.7084 6.28466 12.1762C5.85058 11.644 5.61414 10.9779 5.61551 10.2911V10.2536C6.00926 10.4759 6.47266 10.6125 6.95748 10.6313C6.54991 10.3596 6.21567 9.99164 5.98438 9.5599C5.7531 9.12817 5.63192 8.64603 5.63159 8.15625C5.63159 7.60179 5.77623 7.09554 6.03605 6.65625C6.78311 7.5759 7.71533 8.32806 8.77212 8.86384C9.8289 9.39961 10.9866 9.70702 12.17 9.76607C11.7494 7.74375 13.2602 6.10714 15.0762 6.10714C15.9334 6.10714 16.7048 6.46607 17.2485 7.04464C17.9209 6.91875 18.5637 6.66696 19.1369 6.32946C18.9146 7.01786 18.4485 7.59911 17.8298 7.96607C18.4298 7.90179 19.0084 7.73571 19.5441 7.50268C19.1396 8.09732 18.6334 8.625 18.0521 9.04554Z"/>
</symbol>

<symbol id="close" viewBox="0 0 24 24">
  <path d="M19 19L5 5" stroke-width="2" stroke-linecap="round" stroke-linejoin="round"/>
  <path d="M19 5L5 19" stroke-width="2" stroke-linecap="round" stroke-linejoin="round"/>
</symbol>

<symbol id="arrow" viewBox="0 0 24 24">
<path d="M10 19L3 12L10 5" stroke-width="2" stroke-linecap="round" stroke-linejoin="round"/>
<path d="M3 12H21" stroke-width="2" stroke-linecap="round" stroke-linejoin="round"/>
</symbol>

</svg>